<?xml version="1.0" encoding="utf-8"?>
<!-- Generator: Adobe Illustrator 21.1.0, SVG Export Plug-In . SVG Version: 6.00 Build 0)  -->
<svg version="1.1" id="Layer_1" xmlns="http://www.w3.org/2000/svg" xmlns:xlink="http://www.w3.org/1999/xlink" x="0px" y="0px"
	 viewBox="0 0 350 350" style="enable-background:new 0 0 350 350;" xml:space="preserve">
<style type="text/css">
	.st0{fill:#00FF00;}
</style>
<path class="st0" d="M158,98.4V66h-13v32.7c-20.4,3.6-36,21.4-36,42.8c0,21.8,16.1,39.9,37,43V206h12v-21.4c21.4-2.7,38-21,38-43.1
	C196,119.3,179.4,101.1,158,98.4z"/>
<circle class="st0" cx="151.5" cy="54.5" r="14.5"/>
<ellipse transform="matrix(0.3317 -0.9434 0.9434 0.3317 -49.4363 226.8779)" cx="135.4" cy="148.3" rx="6.5" ry="9.4"/>
<ellipse transform="matrix(0.9278 -0.3731 0.3731 0.9278 -43.1116 73.9246)" cx="169.4" cy="148.3" rx="9.4" ry="6.5"/>
<polygon class="st0" points="105,206 105,330 116,330 116,224 123,224 123,330 140,330 140,259 161,259 161,330 177,330 177,224 
	184,224 184,330 196,330 196,206 "/>
</svg>
