<?xml version="1.0" encoding="utf-8"?>
<!-- Generator: Adobe Illustrator 21.1.0, SVG Export Plug-In . SVG Version: 6.00 Build 0)  -->
<svg version="1.1" xmlns="http://www.w3.org/2000/svg" xmlns:xlink="http://www.w3.org/1999/xlink" x="0px" y="0px"
	 viewBox="0 0 850 4456" style="enable-background:new 0 0 850 4456;" xml:space="preserve">
<style type="text/css">
	.st0{fill:#0DB14B;}
	.st1{fill:#80C342;}
	.st2{fill:#01923E;}
	.st3{fill:none;}
	.st4{fill:#DA2128;}
	.st5{fill:#231F20;}
	.st6{fill:#F58150;}
	.st7{fill:#4D6833;stroke:#231F20;}
	.st8{fill:url(#SVGID_1_);}
	.st9{opacity:0.4;fill:#333333;}
	.st10{opacity:0.4;fill:#FFFFFF;}
	.st11{fill:#2E5E50;}
	.st12{fill:#915A46;}
	.st13{fill:#35956D;}
	.st14{opacity:0.77;}
	.st15{fill:#93278F;}
	.st16{opacity:0.68;}
	.st17{fill:#3FA9F5;}
	.st18{fill:#4BD3DD;}
	.st19{fill:#662D91;}
	.st20{fill:#FFFF00;}
	.st21{stroke:#93278F;stroke-miterlimit:10;}
	.st22{fill:#93278F;stroke:#000000;stroke-miterlimit:10;}
</style>
<symbol  id="Grass_4" viewBox="-22.4 -11.9 44.8 23.8">
	<g>
		<path class="st0" d="M8.1-5.5l1.5-0.9c0,0-0.4,14.7,0.6,18.4C10.2,11.9,7.7,4.8,8.1-5.5z"/>
	</g>
	<g>
		<path class="st0" d="M11.4-5.3l1.2,0.8c0,0-0.2,11.6,0.2,12.8C12.8,8.3,11.1-0.4,11.4-5.3z"/>
	</g>
	<g>
		<path class="st0" d="M1.1-10.6l-1.3,0.8c0,0,0.3,11.6-0.3,12.8C-0.4,2.9,1.5-5.7,1.1-10.6z"/>
	</g>
	<g>
		<path class="st1" d="M15.3-5.8l0.8,0.8l0.1,9.6C16.2,4.7,14.9-2.9,15.3-5.8z"/>
	</g>
	<g>
		<path class="st2" d="M6.4-5.8c0,0,0,9.6-1.1,11.9c0,0,0-9-0.4-10.8L6.4-5.8z"/>
	</g>
	<g>
		<path class="st2" d="M22.4-9.6c0,0,0,9.6-1.1,11.9c0,0,0-9-0.4-10.8L22.4-9.6z"/>
	</g>
	<g>
		<path class="st2" d="M13.2-7.3c0,0,1.1,6.9,3.9,8.7c0,0-3-6.1-2.7-9.6L13.2-7.3z"/>
	</g>
	<g>
		<path class="st2" d="M13-7.6c0,0,1.1,6.9,3.9,8.7c0,0-3-6.1-2.7-9.6L13-7.6z"/>
	</g>
	<g>
		<path class="st1" d="M11.3-5.4c0,0,0.1,8.3-2.3,10.3c0,0,1.6-8,1.2-11.9L11.3-5.4z"/>
	</g>
	<g>
		<path class="st0" d="M6.1-8c0,0-0.3,9.5,1.2,13.3c0,0-0.6-12.8,0-15L6.1-8z"/>
	</g>
	<g>
		<path class="st1" d="M4-4.1c0,0,0.1,6.6-0.6,9.1c0,0-0.1-9.9-0.8-12.8L4-4.1z"/>
	</g>
	<g>
		<path class="st0" d="M4.9-7.9c0,0-0.6,6.4-3.7,9.2c0,0,3.3-8.3,2.8-11L4.9-7.9z"/>
	</g>
	<g>
		<path class="st0" d="M20.7-6.2c0,0-0.6,6.4-3.7,9.2c0,0,3.3-8.3,2.8-11L20.7-6.2z"/>
	</g>
	<g>
		<path class="st0" d="M16.7-7.2c0,0-0.3,2.6,1.4,4.9c0,0-0.8-5.7-0.4-7.6L16.7-7.2z"/>
	</g>
	<g>
		<path class="st2" d="M16-8.6c0,0,0,7.5,2.1,10.3c0,0-1.6-9.6-1.1-13.2L16-8.6z"/>
	</g>
	<g>
		<path class="st1" d="M2.7-6.3c0,0-1.3,10.5-1.9,11.5c0,0,0.8-10.9,0.3-13L2.7-6.3z"/>
	</g>
	<g>
		<path class="st1" d="M11.9-7.9c0,0,0.8,8.9,2.1,11.4c0,0-0.5-7.2-0.5-9.1L11.9-7.9z"/>
	</g>
	<g>
		<path class="st1" d="M18.1-8.4c0,0,0.8,8.9,2.1,11.4c0,0-0.5-7.2-0.5-9.1L18.1-8.4z"/>
	</g>
	<g>
		<path class="st1" d="M7.2-5.8c0,0,1.3,10.3,0.4,13.7c0,0,1.9-10.2,1-15.5L7.2-5.8z"/>
	</g>
	<g>
		<path class="st0" d="M-19.2-6.1l-1.5-0.8c0,0,0.4,12.1-0.6,15C-21.3,8.2-18.8,2.3-19.2-6.1z"/>
	</g>
	<g>
		<path class="st0" d="M-10.9-5.7l1.2,1c0,0-0.2,14.8,0.2,16.3C-9.5,11.6-11.2,0.6-10.9-5.7z"/>
	</g>
	<g>
		<path class="st0" d="M-12.2-11l1.3,0.8c0,0-0.3,11.6,0.3,12.8C-10.6,2.6-12.6-6.1-12.2-11z"/>
	</g>
	<g>
		<path class="st1" d="M-7-6.1l0.8,0.8l0.1,9.6C-6.1,4.3-7.4-3.3-7-6.1z"/>
	</g>
	<g>
		<path class="st2" d="M-17.5-6.1c0,0,0,9.6,1.1,11.9c0,0,0-9,0.4-10.8L-17.5-6.1z"/>
	</g>
	<g>
		<path class="st2" d="M0.1-10c0,0,0,9.6-1.1,11.9c0,0,0-9-0.4-10.8L0.1-10z"/>
	</g>
	<g>
		<path class="st2" d="M-9.1-7.7c0,0,1.1,6.9,3.9,8.7c0,0-3-6.1-2.7-9.6L-9.1-7.7z"/>
	</g>
	<g>
		<path class="st1" d="M-22.4-5.8c0,0-0.1,8.3,2.3,10.3c0,0-1.6-8-1.2-11.9L-22.4-5.8z"/>
	</g>
	<g>
		<path class="st0" d="M-17.2-8.4c0,0,0.4,9.5-1.2,13.3c0,0,0.6-12.8,0-15L-17.2-8.4z"/>
	</g>
	<g>
		<path class="st1" d="M-15.1-4.4c0,0-0.1,6.6,0.6,9.1c0,0,0.1-9.9,0.8-12.8L-15.1-4.4z"/>
	</g>
	<g>
		<path class="st0" d="M-1.5-6.5c0,0-0.6,6.4-3.7,9.2c0,0,3.3-8.3,2.8-11L-1.5-6.5z"/>
	</g>
	<g>
		<path class="st0" d="M-5.6-7.5c0,0-0.3,2.6,1.4,4.9c0,0-0.8-5.7-0.4-7.6L-5.6-7.5z"/>
	</g>
	<g>
		<path class="st2" d="M-6.3-9c0,0,0,7.5,2.1,10.3c0,0-1.6-9.6-1.1-13.2L-6.3-9z"/>
	</g>
	<g>
		<path class="st1" d="M-13.8-6.7c0,0,1.3,10.5,1.9,11.5c0,0-0.8-10.9-0.3-13L-13.8-6.7z"/>
	</g>
	<g>
		<path class="st1" d="M-10.3-8.3c0,0,0.8,8.9,2.1,11.4c0,0-0.5-7.2-0.5-9.1L-10.3-8.3z"/>
	</g>
	<g>
		<path class="st1" d="M-4.1-8.8c0,0,0.8,8.9,2.1,11.4c0,0-0.5-7.2-0.5-9.1L-4.1-8.8z"/>
	</g>
	<g>
		<path class="st1" d="M-18.3-6.2c0,0-1.3,10.3-0.4,13.7c0,0-1.9-10.2-1-15.5L-18.3-6.2z"/>
	</g>
	<g>
		<path class="st2" d="M-12.3-8c0,0-1.1,6.9-3.9,8.7c0,0,3-6.1,2.7-9.6L-12.3-8z"/>
	</g>
	<g>
		<path class="st0" d="M-5.5-8.2c0,0-0.6,6.4-3.7,9.2c0,0,3.3-8.3,2.8-11L-5.5-8.2z"/>
	</g>
</symbol>
<symbol  id="Ladybug" viewBox="-25.1 -28 50.1 56">
	<rect x="-25.1" y="-28" class="st3" width="50.1" height="56"/>
	<g>
		<path class="st4" d="M12,6.4C10.2,12.9,0.1,9.5,0.1,9.5l0-0.1c0,0-10.1,3.4-11.9-3.1c0,0-6-17.4-0.8-24.1c0,0,6.7-9.6,10.9-9.6
			l3.6,0.1c4.1,0,10.9,9.6,10.9,9.6C18-11,12,6.4,12,6.4z"/>
		<g>
			<path class="st5" d="M7.6,28c0,0-0.7-1.4-1.5-2.5C6.5,25.9,7.4,26.8,7.6,28z"/>
			<path class="st5" d="M-6.1,25.5C-6.9,26.6-7.6,28-7.6,28C-7.5,26.8-6.6,25.9-6.1,25.5z"/>
		</g>
		<path class="st6" d="M8.3,3.5C7,8.2-0.2,5.8-0.2,5.8l0,0c0,0-7.3,2.4-8.6-2.2c0,0-4.3-12.5-0.6-17.4c0,0,4.9-6.9,7.8-6.9l2.6,0
			c3,0,7.8,6.9,7.8,6.9C12.6-9,8.3,3.5,8.3,3.5z"/>
		<g>
			<circle class="st7" cx="4.3" cy="2.2" r="1.5"/>
			<ellipse class="st7" cx="4.6" cy="-9.1" rx="2.3" ry="2"/>
			<ellipse class="st7" cx="5.1" cy="-21.3" rx="2.8" ry="1.5"/>
			<ellipse class="st7" cx="9.3" cy="7.1" rx="1.3" ry="1.6"/>
			<ellipse transform="matrix(0.3683 -0.9297 0.9297 0.3683 20.1799 2.5042)" class="st7" cx="11.9" cy="-13.6" rx="2.7" ry="1.7"/>
			<g>
				<circle class="st7" cx="-4.1" cy="2.3" r="1.5"/>
				<ellipse class="st7" cx="-4.4" cy="-8.9" rx="2.3" ry="2"/>
				<ellipse class="st7" cx="-4.9" cy="-21.2" rx="2.8" ry="1.5"/>
				<ellipse class="st7" cx="-9.1" cy="7.2" rx="1.3" ry="1.6"/>
				
					<ellipse transform="matrix(0.9297 -0.3683 0.3683 0.9297 4.1407 -5.2634)" class="st7" cx="-11.7" cy="-13.5" rx="1.7" ry="2.7"/>
			</g>
		</g>
		<line class="st5" x1="-0.2" y1="5.3" x2="-0.2" y2="-27.3"/>
		<g>
			<path class="st5" d="M15.6,19.5c-0.7,0.7-3.6-0.2-3.6-0.2c-1.2-0.2-1-2.6-1-2.6c1-2.1,0.3-1.9,0.3-1.9c-0.6,0-2.1,0.1-3.1,0.1
				c-0.3,1.4-1.8,2.6-3.9,3.3c2,3.3,0.2,4-1.6,4c0,0.1,0,0.2-0.1,0.3c2.2,0,2.7,2.3,2.7,2.3c0.2,0.2,0.5,0.5,0.7,0.8
				c-0.2-0.2-0.4-0.3-0.4-0.3c-1,0-2.6-1.8-3.2-2.5C2,23.5,1.1,24.1,0,24.1c-1.1,0-2.1-0.6-2.5-1.4c-0.6,0.7-2.3,2.5-3.3,2.5
				c0,0-0.2,0.1-0.4,0.3c0.2-0.3,0.5-0.6,0.7-0.8c0,0,0.5-2.4,2.8-2.3c0-0.1,0-0.1-0.1-0.2c-3.3,0-2.4-2.6-1.6-4
				c-2.4-0.7-4.1-2-4.3-3.6c-0.9-0.1-2.1-0.1-2.7-0.1c0,0-0.7-0.2,0.3,1.9c0,0,0.2,2.4-1,2.6c0,0-2.9,0.9-3.6,0.2
				c0,0-0.7-0.9-1.6,0.3c0,0,0.9-1.7,2.8-1.2c0,0,2.6,0.7,1.9-1c0,0-0.5-3.5,1.2-4.1c0,0,2.1-1.1,3.9-1.3C-7,11.6-6.5,11.3-6,11
				c-2.6-0.1-5.3-0.9-6.1-4c0,0-0.4-1.3-1-3.3c-1.1-0.6-2.3-1.8-3.5-4c0,0-0.9-3.2-1.6,1.6c0,0-1.2,3.1-2.5,3.2c0,0,1.2-1.7,0.7-2.9
				c0,0,1.6-4.5,3.3-3.5c0,0,1.5,0.7,2.9,3.1c-0.4-1.7-0.7-3.6-1-5.6l-0.8,0c0,0-1.9,0.9-1.8-2.6c0,0-0.8-4,0-6.7
				c0,0,0.7-2.5-1.8-1.2c0,0-1.2-0.4-1.9,0.1c0,0-2.4,1.4-4-0.3c0,0,1.9,0.2,2.6-0.3c0,0,1.5-0.1,1.6-0.8c0,0,2.9-0.7,3.7,0.1
				c0,0,1.8,0.9,1.1,3.7c0,0-0.7,7.9,0.8,6c0,0,0.2,0,0.4-0.1c-0.3-3.9,0.1-7.8,1.9-10.3c-3.5,7.5,1.7,22.5,1.7,22.5
				c1.3,4.8,7.2,4.2,10.2,3.6c0.1-1.4,0.3-3.2,1-3.9c0,0,0.9,2,0.9,3.6c1.2,0.4,8,2.2,10.8-1.3c-1,2.5-3.4,3.3-5.8,3.4
				c0.5,0.3,1,0.6,1.4,1c1.8,0.2,4.1,1.4,4.1,1.4c1.7,0.7,1.2,4.1,1.2,4.1c-0.7,1.7,1.9,1,1.9,1c1.9-0.5,2.8,1.2,2.8,1.2
				C16.2,18.6,15.6,19.5,15.6,19.5z"/>
			<path class="st5" d="M21-15c-0.7-0.5-1.9-0.1-1.9-0.1c-2.5-1.2-1.8,1.2-1.8,1.2c0.8,2.7,0,6.7,0,6.7c0,3.5-1.8,2.6-1.8,2.6
				l-0.6,0c-0.3,1.9-0.7,3.8-1.1,5.4c1.4-2.3,2.8-2.9,2.8-2.9c1.7-1,3.3,3.5,3.3,3.5c-0.4,1.1,0.7,2.9,0.7,2.9
				c-1.3-0.1-2.5-3.2-2.5-3.2c-0.8-4.7-1.6-1.5-1.6-1.5c-1.2,2.2-2.4,3.4-3.5,4c-0.4,1.4-0.7,2.2-0.7,2.2c-0.2,0.8-0.5,1.4-1,1.9
				c0.1-0.2,0.1-0.4,0.2-0.6c0,0,6-17.4,0.8-24.1c0,0-6.7-9.6-10.9-9.6L-2-26.7c-4.1,0-10.9,9.6-10.9,9.6C-13-17-13-16.9-13-16.9
				c0.3-0.6,0.6-1.1,0.9-1.6c0,0,6.7-9.6,10.9-9.6l3.6,0.1c4.1,0,10.9,9.6,10.9,9.6c2.1,2.8,2.4,7.3,1.9,11.7c0.1,0,0.2,0,0.2,0
				c1.6,1.9,0.8-6,0.8-6c-0.7-2.9,1.1-3.7,1.1-3.7C18-17,21-16.4,21-16.4c0.1,0.6,1.6,0.8,1.6,0.8c0.7,0.5,2.6,0.3,2.6,0.3
				C23.4-13.6,21-15,21-15z"/>
		</g>
	</g>
</symbol>
<symbol  id="Rock_5" viewBox="-9.8 -5.3 19.7 10.6">
	<g>
		<linearGradient id="SVGID_1_" gradientUnits="userSpaceOnUse" x1="4.240038e-03" y1="6.1773" x2="4.240038e-03" y2="-8.9614">
			<stop  offset="0" style="stop-color:#D1D3D4"/>
			<stop  offset="0.5" style="stop-color:#808285"/>
			<stop  offset="1" style="stop-color:#58595B"/>
		</linearGradient>
		<path class="st8" d="M9.8-2.1c0,0,0.7,7.4-9.1,7.4c-9.8,0-12.2-7.8-9.5-9.3C-6.2-5.6,7.4-6,9.8-2.1z"/>
		<path class="st9" d="M8.4-2.5L6.2-3l1.1,1.8c0,0-0.9,0.9-0.9,0.7c0-0.2-0.9-1.4-0.9-1.4L4.6-2.3L3.4-1.4L1.4,0L0.5-1.4
			c0,0-1.8,0-2.1,0c-0.2,0-2.1-1.4-2.7-0.7C-5-1.4-5.2,0.7-5.9,0.2C-6.6-0.3-8.6-3-8.6-3S-2-5.5,0.7-5.3C3.4-5,9.6-4.4,8.4-2.5z"/>
		<path class="st10" d="M6.6,2.7c0,0-4.6,4.3-11.4,0.7c-1.4-0.9,0-2.5,1.6-1.6c1.6,0.9,3,2.3,4.6,2.1C3,3.6,5,2,6.6,2.7z"/>
	</g>
</symbol>
<symbol  id="Trees_1" viewBox="-41.3 -55.9 82.6 111.7">
	<g>
		<g>
			<g>
				<g>
					<path class="st11" d="M-20.8-51.7c0,0-0.9,12.7-0.6,14.7c0.3,2.1,0.3,6,0.3,6l0.6,5.3c0,0,0.5,3,0.2,3.7
						c-0.3,0.7-0.6,2.6-0.6,2.6s-0.3,5.1-0.2,6.2c0,1.2-0.5,4.8-0.5,4.8l-0.3,2.9c0,0-0.1,0.6,0,2.2c0,1,0.2,7.1-0.5,6.4
						c-0.7-0.7-1.1-7.8-1.1-7.8s-0.3-0.7-0.2-2.1c0.1-1.4,0.2-2.7,0.2-2.7l-0.1-4.2L-23-20l0-3.5l-0.3-7.4c0,0-0.8-7.4-0.7-8.1
						c0.1-0.7-1.1-11.9-1.1-11.9S-24.6-52.2-20.8-51.7z"/>
					<path class="st12" d="M-21.1-51.6c0,0-1.1,11.4-1,13.1l1.3,14.9l-0.6,2.6l-0.3,8.3c0,0-0.1,3.5-0.4,3.9c-0.3,0.3-0.6,4.3-0.6,5
						c0,0,0.1,3.8-0.2,3.1c-0.3-0.8-0.3-5.1-0.3-5.8c0.1-0.8,0.1-2.8,0.1-3.4c0-0.6-0.3-2-0.1-2.8c0.2-0.8,1-8.2,0.8-9.3
						c-0.2-1.1-0.1-4.3-0.1-4.3s-0.8-10-0.8-10.7c0-0.8-0.1-5.8-0.3-6.8c-1.6-8.5-1.7-7.2,0.5-7.7C-21.4-52-21.1-51.6-21.1-51.6z"/>
					<g>
						<path class="st11" d="M-3.6-22.9l-1.2,1.4c1.3-0.2-0.3,1.2-0.3,1.2c-1.1,0.7-1.4,0-1.4,0.5c-0.1,1-2.5,2.2-2,1.6
							c-0.3,0.3-0.7,1-0.7,1s-0.5,0.1-1.2,0.8c-0.1,0.1-0.2,0.1-0.2,0.1L-11-15c0,0,0.9-0.3,1.2-0.4c0.3,0,0.3-1.1,0.8-1.7
							c0.5-0.6,0.8-0.8,0.8-0.8l-0.1,2.3c0,0,1-0.4,1.1-1c0.1-0.6,1.5-1.9,1.5-1.9l-0.8,2.2l1.2-0.8c0,0,0.3-0.9,1.1-1
							c0.8,0-0.5,1.4-0.5,1.4s-1.6,1.9-2.7,2.6c-0.7,0.4-3,1.7-7.5,2.9l0,0.3c0,0-0.4,1.3-1.7,1.7l-0.1,0.3l0.3,0.4
							c0,0,0.5,0,0.9-0.3c0.4-0.3,0.8-1.4,0.8-1.4l0.9,1.5l1-0.7c0,0-0.3-0.8,0.3-1.1c0.5-0.3,0.7,1,0.7,1s0.4-0.9,0.7-1.7
							c0.3-0.8,0.2,1.8,0.2,1.8l0.7-1.3c0-0.6,0.9-1,0.9-1l-0.5,2l1.3-1.3c1-0.7,0.6,0.4,0.6,0.4l1.3-1.3c1.8-0.4-0.7,2-0.7,2
							l-1.3,0.8C-8-8.9-7.2-8.3-8.3-8C-9.4-7.6-10.4-8-10.4-8C-11.1-7.4-15-6.3-15-6.3c-0.8,0-0.8,0.7-1.3,0.6
							c0,0.9-0.7,1.4-1.1,1.9c0.8,0,1.5-0.1,1.7-0.2c0.5-0.5,1.2-1,1.2-1l-0.7,1.4l0.4,0.3c0,0,0.4-0.2,1-1c0.5-0.8,1.5-1,1.5-1
							l-0.9,1.9l1.1-0.4c0,0,0.7-1,1.5-1.1c0.8-0.2-0.7,1.6-0.7,1.6l1-0.8c0.9-0.5,0.8,0.3,0.8,0.3l-1.9,1.9l-3,0.9
							c-1.3,0.4-5.3,3.3-5.3,3.3s-0.1,0.2-0.2,0.6l2-0.2l0.6,1.5c0,0,0.7-1,1.1-1.6C-15.9,2-15,1.9-15,1.9l-0.6,1.9
							c0,0,0.4-0.3,1.2-1c0.8-0.6,1.4-0.7,1.4-0.7l-1.2,1.4c0,0,0.6-0.2,1.8-0.4c1.2-0.2,0.7,0.6,0.1,0.5c-0.6-0.1-1.5,0.7-1.5,0.7
							s-1.1,1.3-2.2,1.5C-17.1,6-19.1,8-19.1,8s-1.8,3-1.7,4.1c0.2,1.1-0.7,3-0.7,3l-0.8-3.2l-0.6-1.8c-1.3-1.6-4.1-5-4.8-5.1
							c-0.9-0.2-3-1.9-3-1.9s0.7,0,1.2,0.2c0.5,0.2,1.9,0.6,1.9,0.6l-1.1-1.6c0,0,2.6-0.8,2.7,0.3c0,0.7,1,1.3,1.7,1.6
							c-0.3-0.7-0.3-1.6-0.3-1.9c-1.6-1.6-4.2-4.3-5.3-4.6c-1.5-0.4-3.7-1.7-3.7-1.7l-0.7-1.7c0,0,0.7-0.5,1.7,0.5l0.8,0.9l-1.2-2.1
							c0,0,0.9,0.1,1.3,0.7c0.4,0.6,0.8,0.9,0.8,0.9l-0.1-1.2l0.9,0.6l0.6,1.2l0.7-0.5l1.5,1.2c0-0.1,0.1-0.1,0.2-0.1l-0.6-1.4
							c-0.7-0.2-1.3-0.4-1.7-0.7c-1.2-1-2.8-3.3-2.8-3.3s-3-2.5-4-2.9c-0.9-0.4,0.4-1.2,1.5-0.1l1.4,1.2c0,0-1.1-1.5-0.6-1.5
							c0.4,0,1.4,1.6,1.4,1.6l1.6,1c0,0-0.8-2.1-0.3-1.8c0.5,0.3,1.2,2,1.2,2l0.7,0.4c-0.3-1-0.5-1.8-0.4-1.9
							c0.2-0.1,0.4,0.4,0.7,0.9c0-0.8,0-1.6,0.3-1.2c0,0,0,0,0,0c0.4-0.5,1.3,2.6,1.3,2.6L-27-8l0.3,0.2c0,0,0,0,0-0.1
							c-0.2-0.8-0.3-1.5,0-1.5c0,0,0.1,0,0.1,0c0-0.4,0.1-0.6,0.2-0.3c0.3,0.8,0.7,1.2,0.7,1.2l-0.2,0.8c0,0,0,0,0,0l0.7-1.8
							c0,0,0.4,0.5,0.4,1.4c0,0.1,0.1,0.3,0.1,0.4c0.1-0.5,0.1-1.2-0.2-2l-1.5-1.5l-3-1.6l-2.3-1.3c0,0,1.8,0.5,3.5,1.1
							c-0.3-0.3-0.6-0.7-0.8-1c-0.5-0.9-4.1-1.4-4.1-1.4s-2.3-1.3-3.6-2.2c-1.4-0.9-1.8-1.5-1.8-1.5l2.2,0.8l2.1,1.5l0-0.9l2.3,1.3
							c-1.1-1.1-0.8-2.3,0.3-0.9c0.2,0.3,0.6,0.4,1,0.5c-0.2-0.5-0.2-1-0.1-1.4l-0.8-0.3c0,0-0.4-0.6-0.4-1.1c0-0.5-0.9-0.2-0.9-0.2
							s-1.4-0.2-1.8-0.4c0.6,0.5-1.1-0.6-2.1-1.1c-0.4-0.2-0.1-0.3-1.3-0.9c0,0-2.8-1.8-1.1-1.7l-0.4-0.5c0,0-2.7-3-1.8-3
							c0.9,0,1.6,1.5,1.6,1.5s-0.5-1.2,0.4-1.4c0.9-0.2,1.9,1.6,1.9,1.6l1.4,1.5c0,0-1.1-2.7-0.2-2.6c0.8,0.1,0.6,1.7,1.2,2.3
							c0.1-0.3,0.4-0.5,0.9-0.4l-1.3-1.3c0,0-2.7-3-1.8-3c0.9,0,1.6,1.5,1.6,1.5s-0.5-1.2,0.4-1.4c0.9-0.2,1.9,1.6,1.9,1.6l1.4,1.5
							c0,0-1.1-2.7-0.2-2.6c0.9,0.1,0.5,2.3,1.6,2.5c1,0.3,2.2,1,2.2,1s0-0.1-0.1-0.3c-0.1,0-0.3-0.1-0.4-0.2
							c-0.8-0.9-1-3.1-0.1-2.9l-0.9-2c0,0-1.9-4.5-1.3-4.6c0.6,0,1.1,2.3,1.1,2.3s-0.4-1.8,0.2-2.1c0.6-0.3,1.3,2.5,1.3,2.5l1,2.3
							c0,0-0.8-4.1-0.2-3.9c0.6,0.2,0.4,3.4,1.1,3.9c0.7,0.4,1.4,1.6,1.4,1.6s-0.7-3.7-0.3-2.8c0.4,0.9,1.4,4.3,1.7,4.3
							c0.4,0-0.7-5.1,1-1.2c0.3,0.8,0.6,1.3,0.7,1.8c0.1-0.7,0.5-0.5,0.5-0.5l1.1-0.3c0,0,0.1-0.6,0.7-2.5c0.6-2.4,0.8-2,0.9-1.1
							l0.2-0.1l0.4,1.1c0.2-0.7,0.4-1.7,0.5-2.3c0.3-1,0.3,1.5,0.3,1.5s-0.2,0.3,0.3,0c0.5-0.3,0.6-2.2,1-2.2c0.4-0.1-0.1,3-0.1,3
							l0.8-2.5c0,0,0.6-3.2,1-2.7c0.4,0.5,0.1,2.7,0.1,2.7s0.5-2.7,0.9-2.5c0.3,0.2-0.4,2.8-0.8,4.3c0.3,0.4,0.5,1.1,0.6,1.8
							c0,0,0,0,0.1,0c0.7-0.3,1-2.9,1.6-3c0.3,0,0.4,0.7,0.4,1.3c0.2,0.2,0.4,0.4,0.6,0.6l0.3-0.2c0,0,0.3-2.5,0.8-2.1
							c0.5,0.4,0,2.1,0,2.1s0.7-2.1,1.3-2c0.4,0.1-0.4,1.8-1,3l1.1-0.5c0,0,0.7-1.1,1.6-1.9C-4-34.1-6-31.5-6-31.5l-1.6,1.7l1,0.1
							l1.3-1.7c2.6-2.1,0.7,1,0.7,1l-1.8,1.4l-2.1,2.3c-0.9,0.6-1.9,0.8-2.7,0.9c-0.1,0.2-0.2,0.4-0.4,0.6c-0.2,0.4-0.6,1-0.6,1
							c-0.4,0.2-0.7,0.3-1.1,0.4c0.1,1.6-1.4,1.8-1,1.3c-0.3,0.4-0.9,0.8-0.9,0.8s-0.7,0-0.8,0.7c-0.1,0.7-0.6,0.7-0.6,0.7l-1.1,0.7
							c0.1,0.2,0.2,0.4,0.2,0.6l1.6,0.4c0.1-0.2,0.4-0.7,1.5-2c2.1-2.7,1,0.7,1.6,0.7c0.6,0,1.7-2.4,2.2-3c0.5-0.6-0.1,1.9-0.1,1.9
							s1.1-0.8,2.1-1.2c1-0.3,0.5-2.5,1.3-2.7c0.9-0.2,0,2.6,0,2.6l1.3-1.6c0,0,0.8-1.9,1.7-1.8c0.9,0.1,0.5,1.4,0.5,1.4
							S-3-26-2.1-26C-1.2-26-3.6-22.9-3.6-22.9z"/>
					</g>
				</g>
				<path class="st13" d="M-17.3,5.9c0,0-2.4,0.7-2.7,2c-0.4,1.3-1.3,2.2-1.3,2.9l-0.2,2.2l-0.8-3.3l-1.4-1.3l-2.6-3.3L-29,3.9
					l2.2,0.7L-27,3.7c0,0,0.9,0.5,1.7,0.8l1,1c0,0,0.2-1.1,0.7-0.4l0.2,1.6c0,0,0.8,0.2,1.1,1l0.9-1c0,0-1.8-0.5-1.1-1.5l0.7-1.8
					c0,0,0.7-0.2,0.5,0.5c0,0,0.2,1.1,1.1,0.2c0,0,1.8-1.3,1.8-0.4l0.2,1.3l1.8-0.7l1.1,0.4L-17.3,5.9z"/>
				<path class="st13" d="M-21.8,0.1c0,0,2.3-0.4,1.8,0.5c0,0-0.9,1.3,1.1,0c0,0,2.6-2.2,3.8-2.2c0,0,2.9-0.4,3.7-1.3
					c0,0-1.5-0.2-2.2,0.2c-0.7,0.4-2.2,0.2-2.2,0.2s-0.5-1.5-1.8,0.5l-1.1,1.1c0,0-1.5-1.1-2,0C-21.3,0.3-21.8,0.1-21.8,0.1z"/>
				<path class="st13" d="M-26.1-0.1c0,0-0.2-2.3,0.6-1.6l1.4,1.9c0,0,2.1-0.5,1.1-1L-24-2l-1.2-1.8c0,0-0.8-1.3-0.5,0.4
					c0.3,1.7-0.5,0.5-0.5,0.5l-0.4-0.9l-0.5,0.9c0,0-1.1-1.5-1.6-0.7c0,0-1.3-1.8-1.3-0.7l-1.6-0.1l2.9,1.7
					C-28.8-2.7-26.8-2.3-26.1-0.1z"/>
				<path class="st13" d="M-25.9-16.4c0,0,1.8,0,2.2,1.5c0,0,0.5,1.5,0.7,0.6l0.9,0.5c0,0,0.1,2.4-1.1,1c-1.2-1.4,0.2,0.4,0.2,0.4
					l-1.6-0.9l0.2,1.5l-1.5-0.9l-1.5-1.3l-2.4-0.9c0,0-2.6-0.5-3.1-1.1c-0.5-0.5,0.4-0.5,0.4-0.5l1.5,0.4c0,0,1.3,0.7,1.3,0.2
					l0.2-1.7c0,0,1,0.6,1.4,1.6c0,0,1.3,2,1.3,0.9c0-1.1,0.9,0,0.9,0V-16.4z"/>
				<path class="st13" d="M-24.4-5.2c0,0,0.1-1.4-1.1-2c-1.2-0.6-1.1,0.4-1.1,0.4l-0.7-0.9l-0.9-1.6c0,0-0.2-0.6-0.2,0.6l-1.5-0.9
					l-0.9-1l0.2,1.5l-1.5-0.7c0,0,2.4,3.8,4.1,4c0,0,0.5-1.6,1.7-0.4c1.2,1.2-0.1,0.5-0.1,0.5v0.5l0.7-0.2L-24.4-5.2z"/>
				<path class="st13" d="M-17.5-12.2c0,0,2,0.9,3.3,0.4l4.4-1.8c0,0,2-0.7,2.7-1.3c0.7-0.5,1.1-0.5-1.8,0.2L-11-15l-0.8,0.6
					l-0.4-1.4l-1.1,1.7l-1.1-0.2c0,0-0.7,0.2-0.5,1.1L-17.5-12.2z"/>
				<path class="st13" d="M-14.2-7.2c0,0,3.8-0.7,4.6-1.6c0.7-0.9-1.2-0.4-1.2-0.4l-0.8-0.7h-0.7v1.1c0,0-0.7,0.5-1.8,0.5l-0.5-0.7
					l-0.7,0.9C-15.5-8.1-17.9-5.6-14.2-7.2z"/>
				<path class="st13" d="M-30.4-19.5l-0.5-0.7c0,0-1.8,0-2.4-0.2c-0.5-0.2-2.6-1.6-2.6-1.6l-1.6-1.6c0,0-3.3-2.2-1.1-1.3
					c2.2,0.9,3.8,2,3.8,2l-0.4-1.3l1.1,0.4l0.9-0.5c0,0,0.5,1.3,1.6,1.8c1.2,0.5,0.5,0.2,0.5,0.2l3.5,0.5c0,0-2.8-1.1-3.7-1.7
					l-3.6-3.4c0,0-0.9-2,1.8,0.7l1.6,0.5l-0.2-0.9c0,0,1.1,1.8,2.7,1.6c0,0,3.3,1.6,3.8,2.4l-0.2,1.3c0,0-0.2,0.9,1.3,0.8
					c0,0-2,0.8-2.8-0.3l-2.5-0.2c0,0-0.8,0.3-0.2,0.5c0,0,1.1,2.2,2.6,2.2c1.5,0-1.1,0-2.4-0.5L-30.4-19.5z"/>
				<g>
					<path class="st13" d="M-16-24.6l1.3,0.9l-1.6,1.1c-0.2,0.9-3.7,4-3.7,4c-0.7-2.6,0.4-1.5,1.5-1.8c1.1-0.4,0.2-2.2,0.2-2.2
						L-16-24.6z"/>
					<path class="st13" d="M-11.4-26.3l-1.5,1.9c0,0-3.1,0.2-3.7-0.5c-0.5-0.7,1.5-0.2,2.7-0.7c1.3-0.5,1.3-1.6,1.3-2.2
						c0-0.5-0.3-2.3,0.4-1c0,0,0.7,0,1.1-0.5c0.4-0.5,0.7,0.7,0.9-0.2C-10.2-29.5-10.2-27-11.4-26.3z"/>
				</g>
				<path class="st13" d="M-21.9-21.8c0,0,3.1-1.6,3.5-2.6c0,0,0.2-1.5,0.7-1.5c0.5,0,1.9,0.5,2.6-0.8l0.5-4.7c0,0-0.6-0.2-0.9,0.7
					c-0.3,0.9-1.7,1-1.7,1l-0.5-0.6L-18-29l-1.1-0.9l-0.4,2.7c0,0-0.4,0.7-0.9,0.9c-0.5,0.2-0.5,2-0.5,2S-23.1-23.5-21.9-21.8z"/>
				<path class="st13" d="M-23.9-22l-4.4-6l-1.3-3.3c0,0,0.9,0,1.6,1.5c0.7,1.5,0.2-1.3,1.1,0.5l1.3,0.9c0,0,1.3,0.9,1.6,2.9
					l0.9,0.2C-22.9-25.3-22.4-19.5-23.9-22z"/>
				<path class="st13" d="M-19.7-14c0,0,3.5,0.4,5.5-1.3c2-1.6,6.6-4.9,6.6-4.9l3.1-3.1l-3.3,1.8l0.7-0.9l-2,1.7l-1.8,0.2l-1.3,1.6
					c0,0-1.1,0.5-1.5-0.2c0,0-1.6,0-0.9,1.6l-2.4,0.9C-16.9-16.5-21.9-15.8-19.7-14z"/>
			</g>
			<g>
				<g>
					<path class="st11" d="M27.1-54.6c0,0,1.1,8,0.9,9.5c-0.2,1.6-0.2,4.5-0.2,4.5l-0.4,4c0,0-0.3,2.3-0.1,2.8
						c0.2,0.5,0.4,1.9,0.4,1.9s0.2,3.9,0.2,4.7c0,0.9,0.3,3.6,0.3,3.6l0.2,2.2c0,0,0.1,0.5,0,1.7c0,0.7-0.1,5.4,0.3,4.9
						c0.5-0.5,0.7-5.9,0.7-5.9s0.2-0.5,0.1-1.6c-0.1-1.1-0.1-2-0.1-2l0.1-3.2l-0.5-4.9l0-2.6l0.2-5.6c0,0,0.5-5.6,0.5-6.1
						c-0.1-0.5,0.7-8.2,0.7-8.2S27.7-55,27.1-54.6z"/>
					<path class="st12" d="M27.6-54.8c0,0,1,7.3,1,8.6L27.6-35l0.4,2l0.2,6.3c0,0,0,2.7,0.3,2.9c0.2,0.2,0.4,3.3,0.4,3.8
						c0,0,0,2.9,0.1,2.3c0.2-0.6,0.2-3.8,0.2-4.4c-0.1-0.6-0.1-2.1-0.1-2.6c0-0.5,0.2-1.5,0.1-2.1c-0.1-0.6-0.7-6.2-0.6-7
						c0.1-0.8,0-3.3,0-3.3s0.5-7.6,0.5-8.1c0-0.6,0.8-9,1-9.7c0.2-0.7-0.2-0.1-1.3-0.4C27.9-55.5,27.6-54.8,27.6-54.8z"/>
					<g>
						<path class="st11" d="M39.9-35.6l-0.2,0.4c1.1-0.1-0.8,1.3-0.8,1.3c-0.8,0.4-0.6,0.5-0.9,0.7c-0.7,0.4-1.8,1.2-1.4,0.9
							c-0.2,0.2-1.2,0.3-1.2,0.3s-0.6-0.2-0.6,0.2c0,0.3-0.3,0.8-0.3,0.8l-0.5,0.2c0,0.3,0,0.7-0.1,1.1c0.3-0.1,0.5-0.2,0.7-0.4
							c0.7-1,0.9-0.1,0.2,0.7l1.5-1l0,0.7l1.4-1.2l1.5-0.6c0,0-0.2,0.5-1.2,1.2c-0.9,0.7-2.4,1.6-2.4,1.6s-2.4,0.4-2.7,1.1
							c-0.1,0.2-0.3,0.5-0.5,0.8c1.1-0.4,2.3-0.8,2.3-0.8l-1.5,1l-2,1.2l-1,1.1c-0.2,0.6-0.2,1.1-0.1,1.5c0-0.1,0.1-0.2,0.1-0.3
							c0-0.6,0.3-1,0.3-1l0.4,1.4c0,0,0,0,0,0l-0.1-0.6c0,0,0.3-0.3,0.5-0.9c0.1-0.2,0.1,0,0.1,0.3c0,0,0,0,0.1,0
							c0.2,0,0.1,0.6,0,1.1c0,0,0,0,0,0l0.2-0.2l0.2-0.6c0,0,0.6-2.4,0.8-2c0,0,0,0,0,0c0.2-0.3,0.2,0.3,0.2,0.9
							c0.1-0.4,0.3-0.8,0.4-0.7c0.1,0.1,0,0.7-0.2,1.4l0.5-0.3c0,0,0.5-1.3,0.8-1.5c0.3-0.2-0.2,1.4-0.2,1.4l1.1-0.8
							c0,0,0.6-1.3,0.9-1.2c0.3,0-0.4,1.1-0.4,1.1l0.9-0.9c0.7-0.9,1.6-0.3,1,0c-0.6,0.3-2.6,2.2-2.6,2.2s-1.1,1.7-1.9,2.5
							c-0.2,0.3-0.7,0.4-1.1,0.5l-0.4,1.1c0,0,0.1,0,0.1,0.1l1-0.9l0.4,0.4l0.4-0.9l0.6-0.4l0,0.9c0,0,0.3-0.2,0.5-0.7
							c0.2-0.5,0.8-0.5,0.8-0.5l-0.8,1.6l0.5-0.7c0.7-0.8,1.1-0.4,1.1-0.4l-0.5,1.3c0,0-1.5,1-2.4,1.3c-0.7,0.2-2.5,2.2-3.5,3.5
							c0,0.2,0,0.9-0.2,1.4c0.5-0.2,1.1-0.7,1.1-1.2c0-0.8,1.8-0.2,1.8-0.2l-0.7,1.2c0,0,0.9-0.3,1.3-0.5c0.3-0.2,0.8-0.1,0.8-0.1
							s-1.4,1.3-2,1.5c-0.4,0.1-2.3,2.6-3.2,3.9l-0.4,1.4l-0.5,2.4c0,0-0.6-1.4-0.5-2.2c0.1-0.8-1.1-3.1-1.1-3.1s-1.4-1.5-2.1-1.6
							c-0.7-0.2-1.5-1.1-1.5-1.1s-0.6-0.6-1-0.5c-0.4,0.1-0.7-0.5,0.1-0.3c0.8,0.2,1.2,0.3,1.2,0.3l-0.8-1.1c0,0,0.5,0,1,0.5
							c0.5,0.5,0.8,0.7,0.8,0.7l-0.4-1.4c0,0,0.6,0,0.8,0.5c0.2,0.5,0.7,1.2,0.7,1.2l0.4-1.1l1.3,0.2c0-0.3-0.1-0.5-0.1-0.5
							s-2.6-2.2-3.5-2.5l-2-0.7L20.1-20c0,0-0.1-0.6,0.5-0.2l0.7,0.6c0,0-1-1.3-0.5-1.2c0.5,0.1,1,0.9,1,0.9l0.7,0.3L22-21.1
							c0,0,0.7,0.1,1,0.7c0.4,0.6,0.6,0.7,0.6,0.7l0.2-0.2l-0.5-1.1c0,0,0.4,0.4,0.8,0.7c0.1,0.1,0.6,0.2,1.1,0.2
							c-0.3-0.4-0.7-0.8-0.7-1.4c-0.3,0.1-0.3-0.4-0.8-0.5c0,0-2.6-0.8-3-1.3c0,0-0.7,0.3-1.4,0c-0.7-0.3-0.2-0.7,0.2-0.7l-0.9-0.6
							c0,0-1.6-1.8-0.5-1.5l0.9,1c0,0-0.3-0.8,0.4-0.3l0.9,1L20-25.9c0,0,0.6,0.3,0.6,0.7l0.5,1c0,0-0.1-2,0.1-1.4
							c0.2,0.6,0.5,1.3,0.5,1.3s0.1-1,0.5-0.8c0.4,0.3,0.2,0.8,0.2,0.8l0.7,0.5l0.6-1.1c0,0,0.3,0.8,0.6,1.1
							c0.3,0.2,0.6,0.3,0.6,0.3l0.2-0.3L24.8-24c-0.8-0.3-1.1-1.3-1.1-1.3l0-0.3c-2.9-0.9-4.5-1.9-5-2.2c-0.7-0.5-1.8-2-1.8-2
							s-0.9-1.1-0.3-1.1c0.5,0,0.7,0.7,0.7,0.7l0.8,0.6l-0.5-1.7c0,0,0.9,1,1,1.5c0.1,0.5,0.7,0.7,0.7,0.7l-0.1-1.8
							c0,0,0.1,0.1,0.5,0.6c0.4,0.5,0.3,1.3,0.5,1.3c0.2,0,0.8,0.3,0.8,0.3l-0.2-0.9c0,0-0.1,0-0.2-0.1C20.3-29.9,20-30,20-30
							s-0.3-0.5-0.5-0.7c0.4,0.4-1.2-0.4-1.3-1.2c0-0.4-0.2,0.1-1-0.4c0,0-1.1-1.1-0.2-0.9l-0.8-1.1c0,0-1.6-2.4-1-2.4
							c0.6,0,1,1.2,1,1.2s-0.3-0.9,0.3-1c0.6-0.1,1.1,1.3,1.1,1.3l0.9,1.2c0,0-0.6-2.1,0-2c0.6,0.1,0.2,1.8,0.9,2
							c0.7,0.3,1.4,0.9,1.4,0.9s-0.5-1.9-0.1-1.4c0.4,0.5,1.1,2.3,1.5,2.3c0.4,0-0.4-2.6,1.1-0.5c0.7,1,0.9,1.4,1,1.5l1.1-0.3
							c0.1-0.1,0.1-0.3,0.2-0.4l-0.8-0.5c0,0-0.3,0-0.4-0.5c-0.1-0.5-0.5-0.5-0.5-0.5s-0.4-0.3-0.6-0.6c0.3,0.4-0.8,0.2-0.7-1
							c-0.3-0.1-0.5-0.2-0.7-0.3c0,0-0.3-0.4-0.4-0.7c-0.1-0.2-0.2-0.3-0.3-0.5c-0.5-0.1-1.2-0.2-1.8-0.7L18-39l-1.2-1.1
							c0,0-1.2-2.4,0.5-0.8l0.9,1.3l0.7-0.1l-1-1.3c0,0-1.3-2,0.6-0.2c0.6,0.5,1.1,1.4,1.1,1.4l0.7,0.4c-0.4-0.9-0.9-2.2-0.7-2.2
							c0.4-0.1,0.9,1.5,0.9,1.5s-0.3-1.3,0-1.6c0.4-0.3,0.6,1.6,0.6,1.6l0.2,0.2c0.1-0.2,0.2-0.4,0.4-0.5c0-0.5,0-1,0.3-1
							c0.4,0,0.6,2.1,1.1,2.3c0,0,0,0,0,0c0.1-0.5,0.2-1.1,0.4-1.4c-0.3-1.1-0.8-3.1-0.6-3.2c0.3-0.2,0.6,1.9,0.6,1.9s-0.2-1.7,0-2
							c0.3-0.4,0.7,2.1,0.7,2.1l0.5,1.9c0,0-0.4-2.3-0.1-2.3c0.3,0,0.3,1.4,0.7,1.7c0.3,0.2,0.2,0,0.2,0s0-1.9,0.2-1.1
							c0.1,0.4,0.2,1.2,0.4,1.7l0.3-0.8l0.1,0.1c0.1-0.7,0.2-0.9,0.6,0.8c0.3,1.4,0.4,1.9,0.4,1.9l0.7,0.2c0,0,0.2-0.1,0.3,0.4
							c0.1-0.3,0.3-0.8,0.5-1.3c1.1-2.9,0.4,0.9,0.6,0.9c0.2,0,0.9-2.6,1.1-3.3c0.3-0.7-0.2,2.1-0.2,2.1s0.5-0.8,1-1.2
							c0.4-0.3,0.3-2.8,0.7-2.9c0.4-0.2-0.2,3-0.2,3l0.6-1.7c0,0,0.5-2.1,0.8-1.9c0.4,0.2,0.1,1.6,0.1,1.6s0.4-1.7,0.7-1.7
							c0.4,0-0.9,3.5-0.9,3.5L33-38.8c0.6-0.1,0.4,1.6-0.1,2.2c-0.1,0.1-0.2,0.2-0.3,0.2c0,0.1-0.1,0.2-0.1,0.2s0.8-0.5,1.4-0.7
							c0.7-0.2,0.4-1.8,1-1.9c0.6-0.1-0.1,2-0.1,2l0.9-1.1c0,0,0.7-1.4,1.2-1.2c0.6,0.1,0.3,1.1,0.3,1.1s0.5-1.1,1.1-1.1
							c0.6,0-1.2,2.3-1.2,2.3l-0.9,1c0.3,0,0.5,0.1,0.6,0.3c0.4-0.5,0.3-1.7,0.8-1.7c0.6-0.1-0.1,2-0.1,2l0.9-1.1
							c0,0,0.6-1.4,1.2-1.2c0.6,0.1,0.3,1.1,0.3,1.1s0.5-1.1,1.1-1.1C41.7-37.8,39.9-35.6,39.9-35.6z"/>
					</g>
				</g>
				<path class="st13" d="M33.1-14.1l-1.8,1l-1.7,2.5l-1,1l-0.5,2.5L28-8.9c0-0.6-0.6-1.2-0.8-2.2c-0.2-1-1.8-1.5-1.8-1.5l-1.5-0.8
					l0.7-0.3l1.2,0.6l0.1-1c0-0.7,1.2,0.3,1.2,0.3c0.6,0.7,0.7-0.1,0.7-0.1c-0.1-0.6,0.4-0.4,0.4-0.4l0.5,1.4
					c0.4,0.8-0.7,1.1-0.7,1.1l0.6,0.7c0.3-0.6,0.8-0.7,0.8-0.7l0.1-1.2c0.4-0.6,0.5,0.3,0.5,0.3l0.7-0.8c0.6-0.2,1.1-0.6,1.1-0.6
					l-0.1,0.7L33.1-14.1z"/>
				<path class="st13" d="M28.3-17c0,0-1.6-0.3-1.2,0.4c0,0,0.6,1-0.7,0c0,0-1.7-1.7-2.5-1.7c0,0-1.9-0.3-2.4-1c0,0,1-0.1,1.5,0.1
					c0.5,0.3,1.5,0.1,1.5,0.1s0.4-1.1,1.2,0.4l0.7,0.8c0,0,1-0.8,1.3,0C28-16.9,28.3-17,28.3-17z"/>
				<path class="st13" d="M31.1-17.2c0,0,0.1-1.7-0.4-1.2l-1,1.4c0,0-1.4-0.4-0.7-0.7l0.7-0.9l0.8-1.3c0,0,0.6-1,0.4,0.3
					c-0.2,1.3,0.4,0.4,0.4,0.4l0.2-0.7l0.4,0.7c0,0,0.7-1.1,1.1-0.6c0,0,0.9-1.4,0.9-0.6l1.1-0.1l-1.9,1.3
					C32.9-19.1,31.6-18.8,31.1-17.2z"/>
				<path class="st13" d="M28.2-20.2c0,0-0.8,0.3-1.1-0.1c-0.3-0.4-0.2-1-0.2-1l-0.7-1c0,0-0.6-0.4-0.5-0.9l0.4-0.1
					c0,0-0.3-0.3-0.1-0.7c0.2-0.4,0.4,0.1,0.4,0.1l0.4-0.9c0,0,0.1,0.2,0.1,0.6c0,0.4,1-0.5,1-0.5s0.2,0.1-0.3,0.7
					c-0.5,0.6,0.8-0.2,0.8-0.2s-0.1,0.9-0.4,0.8c-0.3,0,0.3,0.4,0.1,0.9l0.2,1.1L28.2-20.2z"/>
				<path class="st13" d="M31-29.5c0,0-1.2,0-1.5,1.1c0,0-0.4,1.1-0.5,0.4l-0.6,0.4c0,0-0.1,1.8,0.8,0.8c0.8-1.1-0.1,0.3-0.1,0.3
					l1.1-0.7L30-26l1-0.7l1-1l1.6-0.7c0,0,1.7-0.4,2.1-0.8c0.4-0.4-0.2-0.4-0.2-0.4l-1,0.3c0,0-0.9,0.6-0.9,0.1l-0.2-1.3
					c0,0-0.7,0.5-0.9,1.2c0,0-0.8,1.5-0.8,0.7c0-0.8-0.6,0-0.6,0V-29.5z"/>
				<path class="st13" d="M30-21c0,0,0-1.1,0.7-1.5c0.8-0.4,0.7,0.3,0.7,0.3L32-23l0.6-1.2c0,0,0.2-0.4,0.1,0.5l1-0.7l0.6-0.8
					l-0.1,1.1l1-0.6c0,0-1.6,2.9-2.7,3c0,0-0.3-1.2-1.1-0.3c-0.8,0.9,0.1,0.3,0.1,0.3v0.4l-0.5-0.1L30-21z"/>
				<path class="st13" d="M25.4-26.3c0,0-1.3,0.7-2.2,0.3l-2.9-1.4c0,0-1.3-0.6-1.8-1c-0.5-0.4-0.7-0.4,1.2,0.1l1.4-0.2l0.5,0.5
					l0.3-1l0.7,1.3l0.7-0.1c0,0,0.5,0.1,0.4,0.8L25.4-26.3z"/>
				<g>
					<polygon class="st13" points="24.6,-22.1 24.9,-22.3 25.5,-20.9 					"/>
					<path class="st13" d="M23.2-22.6c0,0-2.5-0.6-3-1.2c-0.5-0.7,0.8-0.3,0.8-0.3l0.5-0.5H22v0.8c0,0,0.5,0.4,1.2,0.4l0.4-0.6
						l0.5,0.7C24.1-23.3,25.7-21.3,23.2-22.6z"/>
				</g>
				<path class="st13" d="M34-31.8l0.4-0.6c0,0,1.2,0,1.6-0.1c0.4-0.1,1.7-1.2,1.7-1.2l1.1-1.2c0,0,2.2-1.7,0.7-1
					c-1.5,0.7-2.5,1.5-2.5,1.5l0.2-1l-0.7,0.3l-0.6-0.4c0,0-0.3,1-1.1,1.4C34-33.8,34.4-34,34.4-34l-2.3,0.4c0,0,1.9-0.8,2.5-1.3
					l2.4-2.6c0,0,0.6-1.5-1.2,0.6l-1.1,0.4l0.1-0.7c0,0-0.7,1.4-1.8,1.2c0,0-2.2,1.2-2.5,1.8l0.1,1c0,0,0.1,0.7-0.8,0.6
					c0,0,1.3,0.6,1.9-0.2l1.7-0.2c0,0,0.5,0.2,0.1,0.4c0,0-0.7,1.7-1.7,1.7c-1,0,0.7,0,1.6-0.4L34-31.8z"/>
				<path class="st13" d="M27.1-31.1c0,0-2.3-2.3-2.4-3L23.6-35l0.8-0.7l1.6,1.5c0,0-0.6,1.4,0.1,1.7C26.9-32.2,27.6-33.1,27.1-31.1
					z"/>
				<path class="st13" d="M22.4-35.6c0,0,2.1,0.1,2.4-0.4c0.4-0.6-1-0.1-1.8-0.6c-0.8-0.4-0.8-1.2-0.8-1.7c0-0.4,0.2-1.7-0.3-0.7
					c0,0-0.5,0-0.7-0.4c-0.2-0.4-0.5,0.5-0.6-0.1c0,0,0,1.9,0.8,2.4L22.4-35.6z"/>
				<path class="st13" d="M28.3-33.6c0,0-2.1-1.2-2.3-1.9c0,0-0.1-1.1-0.5-1.1c-0.4,0-1.2,0.4-1.7-0.6l-0.3-3.6c0,0,0.4-0.1,0.6,0.6
					c0.2,0.7,1.1,0.8,1.1,0.8l0.3-0.5l0.2,1l0.7-0.7l0.3,2.1c0,0,0.2,0.6,0.6,0.7c0.4,0.1,0.4,1.5,0.4,1.5S29.2-34.9,28.3-33.6z"/>
				<path class="st13" d="M29.7-33.8l2.9-4.6l0.8-2.5c0,0-0.6,0-1.1,1.1c-0.5,1.1-0.1-1-0.7,0.4l-0.8,0.7c0,0-0.8,0.7-1.1,2.2
					l-0.6,0.1C29.1-36.2,28.7-31.8,29.7-33.8z"/>
				<path class="st13" d="M26.9-27.7c0,0-2.3,0.3-3.6-1c-1.3-1.2-4.4-3.7-4.4-3.7l-2.1-2.3l2.2,1.4L18.5-34l1.3,1.3l1.2,0.1l0.8,1.2
					c0,0,0.7,0.4,1-0.1c0,0,1.1,0,0.6,1.2l1.6,0.7C25.1-29.6,28.3-29.1,26.9-27.7z"/>
			</g>
			<g>
				<g>
					<path class="st11" d="M2.1-54.2c0,0,2.2,15.3,1.8,18.9c-0.5,3.6-0.5,10.5-0.5,10.5l-1,9.3c0,0-0.8,5.2-0.3,6.5
						c0.5,1.2,1,4.5,1,4.5S3.6,4.4,3.5,6.4c-0.1,2,0.9,8.4,0.9,8.4L5,20c0,0,0.2,1.1,0.1,3.9C5,25.6,4.7,36.3,5.9,35.1
						C7.2,34,7.8,21.5,7.8,21.5s0.5-1.2,0.3-3.6c-0.2-2.4-0.4-4.7-0.4-4.7L8,5.8L6.7-5.6l0-6.1l0.6-12.9c0,0,1.4-12.9,1.2-14.1
						C8.2-39.9,9.3-53,9.3-53S9-57.2,2.1-54.2z"/>
					<path class="st12" d="M3.5-54.2c0,0,1.7,13.2,1.6,16.2L2.8-12l1,4.6L4.4,7.3c0,0,0.1,6.2,0.7,6.8c0.6,0.6,1.1,7.6,1,8.7
						c0,0-0.1,6.7,0.4,5.4c0.5-1.3,0.6-8.9,0.4-10.2c-0.1-1.4-0.2-4.9-0.1-5.9c0-1.1,0.5-3.5,0.2-4.8C6.6,5.7,5.2-7.3,5.5-9.2
						c0.3-1.9,0.1-7.5,0.1-7.5S7-34.2,7-35.5c0.1-1.3,0-10.3,0.5-11.8C8-49,8.8-55.2,6.1-55.8C3.3-56.5,3.5-54.2,3.5-54.2z"/>
					<g>
						<path class="st11" d="M35.4-13.3l-0.6,0.9c2.9-0.2-2,3-2,3c-2,1-1.6,1.1-2.3,1.5c-1.8,1-4.8,2.9-3.7,2C26.1-5.3,23.7-5,23.7-5
							s-1.5-0.4-1.5,0.4c0,0.8-0.7,1.9-0.7,1.9l-1.4,0.5c0.1,0.7,0,1.6-0.2,2.5c0.8-0.2,1.4-0.5,1.8-1c1.9-2.3,2.4-0.3,0.5,1.6
							l4-2.3l-0.1,1.6l3.7-2.7l3.9-1.4c0,0-0.6,1.2-3.1,2.7c-2.4,1.5-6.4,3.8-6.4,3.8S17.9,3.5,17,5.1c-0.3,0.5-0.8,1.2-1.3,1.8
							c3-1,6.2-1.9,6.2-1.9l-4.1,2.3l-5.2,2.8l-2.6,2.5c-0.5,1.3-0.5,2.5-0.3,3.4c0.1-0.2,0.1-0.5,0.2-0.7c-0.1-1.5,0.7-2.4,0.7-2.4
							l1.2,3.1c0,0,0,0,0,0l-0.3-1.4c0,0,0.8-0.8,1.3-2.1c0.2-0.5,0.3-0.1,0.4,0.6c0,0,0.1,0,0.1,0c0.4,0,0.2,1.3-0.1,2.6
							c0,0.1,0,0.1,0,0.1l0.6-0.3l0.6-1.5c0,0,1.6-5.5,2.2-4.6c0,0,0,0.1,0,0.1c0.5-0.8,0.5,0.7,0.5,2.1c0.4-1,0.8-1.8,1.2-1.6
							c0.3,0.2-0.1,1.6-0.6,3.3l1.2-0.7c0,0,1.3-2.9,2.1-3.4c0.8-0.5-0.5,3.2-0.5,3.2l2.9-1.8c0,0,1.7-2.9,2.5-2.9
							c0.8,0-1.1,2.7-1.1,2.7l2.5-2.1c1.9-2.1,4.2-0.6,2.6,0.1c-1.6,0.7-7,5.1-7,5.1s-2.9,3.9-5,5.7c-0.7,0.6-1.8,1-2.9,1.2l-1,2.4
							c0.1,0,0.2,0.1,0.3,0.2l2.6-2l1.2,0.9l1.1-2.1l1.6-1l-0.1,2.2c0,0,0.8-0.5,1.5-1.6c0.6-1,2.2-1.3,2.2-1.3L22,21.8l1.5-1.6
							c1.9-1.8,3-0.9,3-0.9l-1.3,2.9c0,0-3.9,2.3-6.5,3c-1.8,0.5-6.5,5.2-9.3,8.1c0,0.5,0,2.1-0.5,3.3c1.2-0.5,3-1.5,3-2.7
							c0-1.8,4.7-0.5,4.7-0.5L14.7,36c0,0,2.4-0.7,3.3-1.1c0.9-0.4,2.1-0.3,2.1-0.3s-3.7,3.1-5.2,3.4c-1.1,0.3-6,6.1-8.4,8.9
							l-1.1,3.2l-1.4,5.6c0,0-1.5-3.3-1.3-5.2c0.3-1.9-3-7.2-3-7.2s-3.6-3.4-5.6-3.8c-2-0.4-3.9-2.6-3.9-2.6s-1.7-1.4-2.7-1.2
							c-1,0.2-1.9-1.2,0.2-0.8c2.2,0.4,3.1,0.7,3.1,0.7l-2.1-2.5c0,0,1.2,0,2.5,1.2c1.3,1.1,2.1,1.7,2.1,1.7l-1-3.3
							c0,0,1.6,0.1,2.1,1.2c0.5,1.1,1.9,2.8,1.9,2.8l1.1-2.6l3.5,0.4c-0.1-0.7-0.3-1-0.3-1s-6.9-5.2-9.3-5.8l-5.3-1.6l-3.4-3.4
							c0,0-0.1-1.4,1.4-0.5l1.7,1.4c0,0-2.6-3.1-1.3-2.8c1.4,0.3,2.7,2,2.7,2l2,0.6l-1.6-3.3c0,0,1.8,0.3,2.7,1.7
							c0.9,1.4,1.7,1.7,1.7,1.7l0.6-0.5l-1.3-2.5c0,0,1.2,0.9,2.1,1.7c0.3,0.3,1.6,0.4,3,0.4c-0.7-0.9-2-1.8-1.9-3.3
							c-0.8,0.2-0.9-1-2.2-1.1c0,0-6.9-1.9-8-3c0,0-1.8,0.7-3.8,0.1c-2-0.6-0.5-1.6,0.7-1.6l-2.3-1.4c0,0-4.4-4.2-1.2-3.6l2.3,2.3
							c0,0-0.7-1.9,1-0.8l2.3,2.3l-0.8-3.5c0,0,1.6,0.6,1.5,1.7l1.3,2.2c0,0-0.2-4.6,0.3-3.2c0.5,1.4,1.3,3,1.3,3s0.3-2.4,1.3-1.8
							c1,0.6,0.5,1.9,0.5,1.9l1.7,1.2l1.5-2.6c0,0,0.7,1.9,1.5,2.5c0.8,0.6,1.6,0.6,1.6,0.6l0.5-0.6l-0.1-0.4c-2.3-0.7-3-3-3-3
							l0-0.6c-7.8-2.1-11.9-4.3-13.2-5.1c-1.9-1.2-4.8-4.5-4.8-4.5s-2.3-2.5-0.9-2.5c1.4,0.1,1.9,1.7,1.9,1.7l2.1,1.4l-1.4-3.8
							c0,0,2.5,2.3,2.6,3.3c0.2,1.1,1.9,1.7,1.9,1.7l-0.2-4.1c0,0,0.4,0.3,1.3,1.4c0.9,1.1,0.9,3,1.5,3c0.6,0,2.2,0.6,2.2,0.6
							l-0.5-2c-0.1,0-0.3-0.1-0.4-0.2c-1.3-1.2-2.2-1.4-2.2-1.4s-0.7-1.1-1.3-1.7c1,1-3.2-1-3.4-2.8c-0.1-1-0.6,0.2-2.5-0.9
							c0,0-2.9-2.6-0.5-2.2l-2.1-2.5c0,0-4.3-5.6-2.7-5.5c1.6,0.1,2.7,2.8,2.7,2.8s-0.7-2.2,0.9-2.4c1.6-0.2,3,3.1,3,3.1l2.2,2.8
							c0,0,0,0,0,0c-0.1-0.4-1.5-4.9,0-4.5c1.6,0.3,0.6,4.1,2.4,4.7c1.8,0.6,3.7,2,3.7,2s-1.2-4.4-0.3-3.2c0.9,1.1,2.9,5.3,3.9,5.3
							c1,0-0.9-6,2.8-1.2c1.9,2.3,2.5,3.2,2.6,3.6l2.8-0.6c0.1-0.3,0.3-0.7,0.4-1l-2-1.2c0,0-0.5,0.1-0.7-1
							c-0.2-1.2-1.1-1.3-1.1-1.3s-0.2-1-0.7-1.6c0.7,1-2.3-1.4-3.1-2c-0.7-0.2-1.4-0.5-2.1-0.8c0,0-1.1-1.2-1.1-2
							c-0.4-0.3-0.8-0.6-1.2-0.8c-1.3-0.2-2.9-0.6-4.2-1.6l-3.6-4l-3.2-2.5c0,0-3.2-5.4,1.3-1.8l2.3,3l1.8-0.3l-2.8-3
							c0,0-3.5-4.6,1.7-0.5c1.6,1.2,2.9,3.2,2.9,3.2l2,0.9c-1.1-2.1-2.4-5-1.8-5.2c1-0.3,2.3,3.5,2.3,3.5s-0.9-3,0-3.7
							c1-0.7,1.5,3.7,1.5,3.7l0.5,0.4c0.3-0.4,0.7-0.8,1-1.1c0-1.2,0.1-2.4,0.7-2.3c1.1,0.1,1.6,4.8,2.8,5.3c0,0,0.1,0,0.1,0.1
							c0.2-1.2,0.6-2.5,1.1-3.2c-0.8-2.6-2-7.2-1.5-7.5c0.8-0.4,1.6,4.4,1.6,4.4s-0.6-3.8,0.1-4.7c0.7-0.9,1.8,4.8,1.8,4.8l1.4,4.4
							c0,0-1-5.4-0.2-5.3c0.8,0.1,0.9,3.3,1.8,3.9c0.9,0.6,0.6,0,0.6,0s-0.1-4.4,0.5-2.6c0.3,1,0.7,2.7,1,4l0.7-1.9l0.3,0.1
							c0.2-1.5,0.5-2.2,1.7,2c0.9,3.3,1.2,4.3,1.2,4.3l1.9,0.6c0,0,0.6-0.3,0.8,0.9c0.3-0.8,0.7-1.8,1.3-3.1
							c2.9-6.8,1.1,2.1,1.7,2.1c0.6,0,2.3-6,3-7.6c0.7-1.6-0.5,4.8-0.5,4.8s1.4-2,2.6-2.7c1.2-0.8,0.9-6.4,2-6.8
							c1-0.4-0.4,6.9-0.4,6.9l1.7-4c0,0,1.2-4.8,2.2-4.4c1,0.4,0.4,3.7,0.4,3.7s0.9-4,2-4c1,0-2.3,8-2.3,8L17-20.8
							c1.6-0.3,1.2,3.6-0.2,5.2c-0.2,0.3-0.5,0.4-0.8,0.4c-0.1,0.3-0.2,0.5-0.2,0.5s2-1.3,3.8-1.7c1.8-0.5,1.2-4.3,2.8-4.5
							c1.6-0.2-0.4,4.6-0.4,4.6l2.5-2.6c0,0,1.7-3.2,3.3-2.8c1.6,0.3,0.7,2.5,0.7,2.5s1.3-2.6,2.9-2.6c1.6,0.1-3.2,5.3-3.2,5.3
							L26-14.3c0.9-0.1,1.4,0.3,1.6,0.8c1-1.1,0.7-3.9,2.1-4c1.6-0.2-0.4,4.6-0.4,4.6l2.5-2.6c0,0,1.7-3.2,3.3-2.8
							c1.6,0.3,0.7,2.5,0.7,2.5s1.3-2.6,2.9-2.6C40.2-18.5,35.4-13.3,35.4-13.3z"/>
					</g>
				</g>
				<path class="st13" d="M1.2,32.1l-5.1-2.9c0,0-4.1-2.2-5.1-2.4c0,0-4.4-1.7-2.7-1.7l-2.3-1.3c0,0-0.3-0.9,0.6-0.4l2.4,1.5h1.5
					c0,0-2.2-1.9-1-1.7c1.2,0.2,2.4,1.2,2.4,1.2l1.2,0.2l-0.4-1.3l1.4,0.6l2.4,0.5l1.5,1.7l-1.9,0.2c0,0-0.7,1.2,1.5,1.9
					C-0.2,28.9,3.4,33.3,1.2,32.1z"/>
				<path class="st13" d="M2.4,39.9c0,0,1.5,1.2,2.2,2.9c0.7,1.7,1.9-1.5,1.9-1.5s2.9-1.7,1.4,0.6l3.7-3L6.3,45c0,0-1.2,2.9-1.5,4.1
					c-0.2,1.2,0,3.4-1.5-0.2L0.5,43l-1.9-1.9c0,0-3.2-1.5-4.4-1.9c-1.2-0.5-3.4-2.7-3.4-2.7s-0.2-1.9,1.2-0.2
					c1.5,1.7,2.2,1.5,2.2,1.5l1-0.2l2,1.2l3.4,1c0,0-1-1.9,0-1.5C1.5,38.6,2.4,39.9,2.4,39.9z"/>
				<path class="st13" d="M4.5,31.6c0,0,0.1-2.4,2.1-2.9c1.9-0.5-0.2,1.9-0.2,1.9l2-0.7c0,0,4-2.2,2.8-1C10,30.1,8.7,32,8.7,32
					s-2.8,1.8-1.6,0.3c1.2-1.4-2.8,0.3-2.8,0.3L4.5,31.6z"/>
				<path class="st13" d="M12.2,27.9c0,0,4.4-2.9,6.1-3.4c1.7-0.5,5.1-1.9,5.6-2.7c0.5-0.7,1.4-1.4-0.2-0.7c-1.6,0.7-2.4,1-2.4,1
					l1.2-1.9L20,22.3l-0.5-1.5l-1.2,2.2l-1.9-0.7l-2.4,2.2l-5.4,2.2l0.2,1.2C8.8,27.9,12.7,24.8,12.2,27.9z"/>
				<path class="st13" d="M7,20.9c0,0-4.4-0.5-4,0.8L2.3,20l-1.5,0.6L-0.9,20c0,0,0-1.4,0.5-0.8l1.5-0.2c0,0-1.5-0.2-2-1.2
					c-0.5-1.1,1,0,1,0l-1-1.5c0,0-0.5-1.1,1.2,0.3c1.7,1.4,0.5-1.2,0.5-1.2s0.5-0.9,1,0.2c0.5,1.1,1.5,0.8,2.4,0.2
					c1-0.6,2.2-3.4,2-1.4l-1,2c0,0,2.3-1.4,2.3-2c0-0.6,1.5,0.3-0.5,2.1c0,0,1.7,0.5,0.2,1.4l-0.8,0.9l1.3-0.5c0,0,0.1,0.4-1.2,1.1
					L6,20.3C6,20.3,8.7,19.4,7,20.9z"/>
				<path class="st13" d="M-3.2,18.2l-3.2-2.7l-1.5,0.7c0,0-2.2-2.4-2.4-1.5c-0.2,1,3.7,3.4,3.7,3.4H-3.2z"/>
				<path class="st13" d="M-10.9,16.5l-3.2-1.9l-1.5-1.7l-0.7,1l-2.7-2.2c0,0-2.4,0,0,1.7C-16.5,15-10.9,16.5-10.9,16.5z"/>
				<path class="st13" d="M-15.8,14.8c0,0-4.6,1-2.2-0.5L-15.8,14.8z"/>
				<path class="st13" d="M-8,8.7c0,0-6.6-1.2-7.3-1.9c-0.7-0.7-4.4-1.9-2-1.9h4.6l8.3,4.1L-8,8.7z"/>
				<path class="st13" d="M-3.4,8.7l-11.4-8.5c0,0-2.2-0.7-2.7-1.7c-0.5-1-2.9-1-3.2-2.2l-0.7-1.9c0,0-1.9,0-2.9-1.2l-0.5-1.7
					l-3.2-3.7c0,0,0-0.7,1.9,0.7c0,0-1.2-4.4,1.9,0.2l2.7,2.7c0,0-0.2-3.4,0.5-1.9l1.2,1.9l3.9,1.7l1.2,0.5l0.2-1l1.9,2.9l1.2,5.1
					c0,0,1.7,1.5,2.9,1.2c1.2-0.2,1,1.7,1,1.7s6.1,2,3.2,2.2l-2-0.2C-6.1,5.5-0.5,10.6-3.4,8.7z"/>
				<path class="st13" d="M3.3,8.5L0.1,6.3c0,0-1.5-0.7,0.2-0.8C2,5.5,0.8,5.4,0.8,5.4l-0.6-1c0,0-2.9-1.7-1.9-1.6
					c1,0.1,1.1-0.1,1.1-0.1L-2,1c0,0-1.4-1.7-0.3-1.2l-0.8-1.5c0,0-0.4-1.4,0.8-0.4l1.7,1.6l-1.3-3.6c0,0-0.4-1.4,0.9,0.5
					c1.3,1.9,1.3,2.7,1.3,2.7L0.1-5.2c0,0,0.7-0.9,1.1,1.2l0.5,2.5c0,0,1.4,1,1.5-0.8c0.1-1.7,1-2,0.7,1.1L3.5,0.7
					c0,0,2.3-3.4,1.5-0.2c0,0,0.7-0.4,0,2.3c0,0,1.4,0.7,1,2.2L5.5,6.5c0,0-1.8-2.2-2-0.1l1.7,2.2c0,0-1.3-0.8-0.7,1.1
					c0,0-2.3-0.9-2.1,0L1.1,8.5C1.1,8.5,0.9,7.3,3.3,8.5z"/>
				<path class="st13" d="M9,5.9c0,0,5.8-0.9,7.1-2c1.3-1.1,2.9-3.7,2.9-5.1c0,0-0.9-1.3-1-0.4l-1-1.8c0,0-0.7,0.9-0.9,1.6
					C16-1,14.3-2.5,14.3-2.5s-0.9,0,0,2c0.9,2-0.5,1.1-1.3,0c-0.7-1.1-0.9-0.2-0.4,1.1c0.5,1.3-0.5,1.6-0.5,1.6s-1.8-2.2-1.5-0.9
					c0.4,1.3,0.5,1.5,0.5,1.5S11,4.3,9.9,4.6C8.8,5,9,5.9,9,5.9z"/>
				<path class="st13" d="M9.2,9c0,0,2.2-1.1,2.4-1.8c0.2-0.7-0.9-0.5-0.9-0.5L9.2,9z"/>
				<path class="st13" d="M12.7,8.1c0,0,3.1-0.2-0.2,1.1c-3.3,1.3-1.6,0-1.6,0L12.7,8.1z"/>
				<path class="st13" d="M5.5-9.2c0,0-7.4-0.5-9.2-2.8c-1.8-2.4-4.4-10.6-4.4-10.6L-8.7-27c0,0,0.5-2.4,0.9,0.4
					c0,0,1.9,4.2,2.6,3.2c0,0,0.6-1.7,1.5,1c0.8,2.7-0.3-0.4-0.3-0.4l0.7-0.5c0,0,0.4-3.1,1.3,1.1l1.6-1.1l-0.2,5.7
					c0,0,0.7,6,1.1,4.7c0,0,0.5-4.2,1.1-2.9c0.5,1.3,0.4,3.5,0.4,3.5s2.2-2,2.4,0.2l-0.7,0.9l2,0.4l-0.5,0.7L5.5-9.2z"/>
				<path class="st13" d="M-21.2-20.5c0,0,2.1,3.7,3.7,3.9c1.5,0.2,3.8-0.3,4.3,1.2c0.5,1.5,1,1.8,2.3,2.2c1.2,0.5,3.7,2.7,3.7,2.7
					s1.9,2.9,1.5,0.5c0,0-0.7-3.4-2.2-4.1c-1.5-0.7-1.7,0-1.7,0l-1-3.4c0,0-1.2-0.7-1,0.7c0.2,1.5-1.5-3.4-1.5-3.4s-1.7,0.2-1.2,1.7
					c0.5,1.5-2.2-2.4-2.2-2.4l-2.2-0.5c0,0,0.5,1.5,1,2.2c0.5,0.7-1.7-1.7-3.2-2.4c-1.4-0.7-2.9-1-3.9-2.4
					C-24.8-24.2-23.1-21.5-21.2-20.5z"/>
				<path class="st13" d="M10.5-6.3c0,0,10.8-5.1,13-6.9c2.2-1.8,5.7-4.9,5.7-4.9s0.2-0.7-1.8,0.7c0,0,2.2-2.4,0.9-2.7
					c0,0-1.1,1.6-3.7,3.7c-2.6,2-3.1,1.1-3.1,1.1l0.4-2c0,0-1.1,2.4-3.1,3.7c0,0,0.4,1.1-1.3,2C15.8-10.9,10.5-6.3,10.5-6.3z"/>
				<path class="st13" d="M19.8-7.1c0,0,6.6,0.9,10.2-1.5l5.3-5.7l2.4-2.7c0,0,0-0.2-2,1.6l-1.1,0.5c0,0,0.5-2.6,0-1.6
					c0,0-1.6,1.6-2.7,3.8c-1.1,2.2-2.2,1.8-2.2,1.8h-1.8c0,0,1.6-2.9,1.5-3.8c-0.2-0.9-1.1,2.2-1.1,2.2L26.4-10l-3.7,0.7l-0.9,1.1
					c0,0-4.2,1-5.1,2L19.8-7.1z"/>
				<path class="st13" d="M19.6,2.4c0,0,4.4,0,5.1-0.5l2.4-1.5l-1.8,0.4l-0.2-0.7l-2.7,1.3c0,0-0.9,0-0.4-0.9l-1.1,0.4l-2.4,2
					l-0.7,0.7L19.6,2.4z"/>
				<path class="st13" d="M9.7-14.2c0,0,0.5-3.8,1.3-4.4c0.7-0.5,3.7-3.1,3.3-2c-0.4,1.1-1.5,3.1-1.5,3.1L9.7-14.2z"/>
				<path class="st13" d="M15.4-21.3c0,0-0.4-2.9,0.7-4c1.1-1.1,1.8-3.5,1.8-3.5s0.9,0.2,0.5,1.6L15.4-21.3z"/>
			</g>
		</g>
	</g>
</symbol>
<g id="Layer_1">
	<g class="st14">
		<rect x="0.5" y="2.5" class="st15" width="849" height="4455"/>
		<path d="M849,3v4454H1v-126v-220v-94V3H849 M850,2H0v4015c0,31.3,0,62.7,0,94c0,73.3,0,146.7,0,220c0,42.3,0,84.7,0,127h850V2
			L850,2z"/>
	</g>
	<g class="st16">
		<rect x="1" class="st17" width="850" height="2053"/>
	</g>
	<path class="st18" d="M808.8,544.3c0.7-2.2,1.2-4.5,1.2-6.8c0-12-10.2-21.8-22.8-21.8c-0.4,0-0.7,0-1.1,0.1c0-0.4,0.1-0.7,0.1-1.1
		c0-24.1-19.5-43.6-43.6-43.6c-23.8,0-43,19-43.5,42.6c-7,0.6-13.1,4.4-16.6,9.9c-2.2-1.1-4.7-1.7-7.3-1.7
		c-9.2,0-16.6,7.4-16.6,16.6c0,3,0.8,5.7,2.1,8.1c8-0.8,16-1.3,24.2-0.7c0,0,0,0,0,0l0,0c0,0,0,0,0,0c1.1-0.4,2.3-0.6,3.6-0.6
		c7.7,0,15.4-0.1,23.1-0.1l0,0c0,0,0,0,0,0c2.7,0,5.4,0,8.1,0c0,0,0,0,0,0c15.7-0.1,31.5-0.3,47.2-0.4
		C780.9,544.5,794.8,544.3,808.8,544.3z"/>
	<path class="st18" d="M548.8,472.3c0.7-2.2,1.2-4.5,1.2-6.8c0-12-10.2-21.8-22.8-21.8c-0.4,0-0.7,0-1.1,0.1c0-0.4,0.1-0.7,0.1-1.1
		c0-24.1-19.5-43.6-43.6-43.6c-23.8,0-43,19-43.5,42.6c-7,0.6-13.1,4.4-16.6,9.9c-2.2-1.1-4.7-1.7-7.3-1.7
		c-9.2,0-16.6,7.4-16.6,16.6c0,3,0.8,5.7,2.1,8.1c8-0.8,16-1.3,24.2-0.7c0,0,0,0,0,0l0,0c0,0,0,0,0,0c1.1-0.4,2.3-0.6,3.6-0.6
		c7.7,0,15.4-0.1,23.1-0.1l0,0c0,0,0,0,0,0c2.7,0,5.4,0,8.1,0c0,0,0,0,0,0c15.7-0.1,31.5-0.3,47.2-0.4
		C520.9,472.5,534.8,472.3,548.8,472.3z"/>
	<path class="st18" d="M315,562c1.3-3.7,2-7.6,2-11.7c0-20.5-17.4-37.2-39-37.2c-0.6,0-1.2,0.1-1.9,0.1c0-0.6,0.1-1.2,0.1-1.9
		c0-41.1-33.3-74.4-74.4-74.4c-40.5,0-73.4,32.4-74.3,72.8c-12,1.1-22.4,7.6-28.3,16.9c-3.8-1.9-8-2.9-12.5-2.9
		c-15.6,0-28.3,12.7-28.3,28.3c0,5,1.3,9.7,3.6,13.8c13.7-1.4,27.3-2.2,41.2-1.1c0,0,0,0,0,0l0,0c0,0,0,0,0,0c1.8-0.6,3.9-1,6.2-1
		c13.2,0,26.3-0.1,39.5-0.2l0,0c0,0,0,0,0,0c4.6,0,9.2,0,13.8-0.1c0,0,0,0,0,0c26.9-0.2,53.7-0.5,80.6-0.8
		C267.3,562.4,291.1,562.1,315,562z"/>
	<path class="st18" d="M414.6,738.2c0.9-2.6,1.4-5.4,1.4-8.3c0-14.7-12.4-26.5-27.8-26.5c-0.4,0-0.9,0-1.3,0.1
		c0-0.4,0.1-0.9,0.1-1.3c0-29.3-23.8-53.1-53.1-53.1c-28.9,0-52.4,23.2-53,51.9c-8.6,0.8-16,5.4-20.2,12.1c-2.7-1.3-5.7-2.1-8.9-2.1
		c-11.2,0-20.2,9.1-20.2,20.2c0,3.6,1,7,2.6,9.9c9.8-1,19.5-1.6,29.4-0.8c0,0,0,0,0,0l0,0c0,0,0,0,0,0c1.3-0.5,2.8-0.7,4.4-0.7
		c9.4,0,18.8-0.1,28.2-0.2l0,0c0,0,0,0,0,0c3.3,0,6.5,0,9.8-0.1c0,0,0,0,0,0c19.2-0.1,38.3-0.3,57.5-0.5
		C380.5,738.5,397.5,738.3,414.6,738.2z"/>
	<circle class="st19" cx="225" cy="3628" r="13"/>
	<path class="st19" d="M280,3299c0-34.2-30.4-62-68-62c-34.2,0-62.5,23-67.3,53c-7.4-2.5-15.1-4-22.8-4.7
		c-1.4-18.1-16.5-32.3-34.9-32.3c-19.3,0-35,15.7-35,35c0,6.2,1.6,12,4.4,17c-3,2.4-5.9,4.9-8.7,7.7c-3.3,3.3-6.3,6.8-9,10.5
		C17,3324.9,0,3342.9,0,3365c0,16.3,9.3,30.4,22.8,37.3c4,16.1,12.3,31.4,24.9,44c15,15,33.8,23.9,53.2,26.7H73v983h82v-983h-27
		c15.5-2.2,30.6-8.3,43.7-18.3c5.1,17.5,21.2,30.3,40.3,30.3c23.2,0,42-18.8,42-42c0-23.2-18.8-42-42-42c-1.9,0-3.7,0.1-5.6,0.4
		c3.2-13.3,3.4-27.2,0.7-40.6c1.6,0.1,3.2,0.2,4.9,0.2C249.6,3361,280,3333.2,280,3299z"/>
	<path class="st19" d="M480.5,3031c-34.2,0-62.2,26.6-64.4,60.3c-10.4-4.1-21.8-6.3-33.6-6.3c-22.5,0-43.1,8-59.1,21.4
		c-7.2-6.4-16.6-10.4-26.9-10.4c-22.4,0-40.5,18.4-40.5,41c0,20.4,14.7,37.3,34,40.5c0,0,0,0,0,0c0,38.1,23.1,70.9,56,85V4456h70
		V3263.7c34.5-13.4,59-47,59-86.2c0-6.1-0.6-12.1-1.7-17.9c2.4,0.3,4.8,0.4,7.2,0.4c35.6,0,64.5-28.9,64.5-64.5
		S516.1,3031,480.5,3031z"/>
	<circle class="st19" cx="292" cy="3270" r="54"/>
	<g>
		<path class="st15" d="M833.1,3419.6c13.2-20.1,20.9-44.2,20.9-70.1c0-35-14-66.6-36.7-89.7c19.6-12.1,32.7-33.7,32.7-58.3
			c0-37.8-30.8-68.5-68.7-68.5c-37.9,0-68.7,30.7-68.7,68.5c0,7.3,1.2,14.4,3.3,21c-1.6,0.1-3.2,0.3-4.7,0.5
			c-15.5-21.8-40.9-36-69.7-36c-47.2,0-85.5,38.3-85.5,85.5c0,28.1,13.5,53,34.4,68.6c-44.7,1.6-80.4,38.3-80.4,83.4
			c0,46.1,37.4,83.5,83.5,83.5c32.5,0,60.6-18.6,74.4-45.6c8.8,4.7,18.2,8.3,28.1,10.8V4456h64v-969c9.1,12.1,23.6,20,40,20
			c27.6,0,50-22.4,50-50C850,3442.1,843.5,3428.7,833.1,3419.6z"/>
	</g>
	<path class="st19" d="M276,3589"/>
	<rect x="342" y="1709" class="st17" width="108" height="944"/>
	<rect x="718" y="1716" class="st17" width="84" height="944"/>
	<rect x="548" y="2137" class="st17" width="66" height="516"/>
	<rect x="210" y="2137" class="st17" width="62" height="516"/>
	<path class="st20" d="M654.4,216c7.6,27.3-0.8,54.9-19.3,70.2c7.2,1.1,14.6,0.7,21.9-1.3c31.4-8.8,48.8-44.8,38.8-80.4
		s-43.5-57.4-74.8-48.7c-7.3,2-13.8,5.6-19.5,10.2C625.2,169.5,646.7,188.7,654.4,216z"/>
	<path class="st17" d="M91.7,1795.5c-20,0-38.5-4.7-53.7-12.6V2653h108v-870.4C130.6,1790.7,111.9,1795.5,91.7,1795.5z"/>
	<circle class="st20" cx="-124" cy="1796" r="0"/>
	<circle class="st20" cx="390.5" cy="1586.5" r="66.5"/>
	<path class="st20" d="M92.5,1775c-30.3,0-55.9-20.3-63.9-48c-1.7,5.9-2.6,12.1-2.6,18.5c0,36.7,29.8,66.5,66.5,66.5
		s66.5-29.8,66.5-66.5c0-6.4-0.9-12.6-2.6-18.5C148.4,1754.7,122.8,1775,92.5,1775z"/>
	<path class="st20" d="M580.5,2120c-30.3,0-55.9-20.3-63.9-48c-1.7,5.9-2.6,12.1-2.6,18.5c0,36.7,29.8,66.5,66.5,66.5
		s66.5-29.8,66.5-66.5c0-6.4-0.9-12.6-2.6-18.5C636.4,2099.7,610.8,2120,580.5,2120z"/>
	<path class="st20" d="M760.5,1702c-30.3,0-55.9-20.3-63.9-48c-1.7,5.9-2.6,12.1-2.6,18.5c0,36.7,29.8,66.5,66.5,66.5
		s66.5-29.8,66.5-66.5c0-6.4-0.9-12.6-2.6-18.5C816.4,1681.7,790.8,1702,760.5,1702z"/>
	<path class="st20" d="M241.5,2113c-30.3,0-55.9-20.3-63.9-48c-1.7,5.9-2.6,12.1-2.6,18.5c0,36.7,29.8,66.5,66.5,66.5
		s66.5-29.8,66.5-66.5c0-6.4-0.9-12.6-2.6-18.5C297.4,2092.7,271.8,2113,241.5,2113z"/>
	<path class="st21" d="M29.5,4224.5"/>
	<path class="st22" d="M33.5,4400.5c-8,12-16,24-24,36"/>
	<path class="st22" d="M1099.5,4422.5"/>
	
		<use xlink:href="#Trees_1"  width="82.6" height="111.7" x="-41.3" y="-55.9" transform="matrix(4.1288 0 0 -4.376 180.6288 4204.2368)" style="overflow:visible;"/>
	
		<use xlink:href="#Trees_1"  width="82.6" height="111.7" x="-41.3" y="-55.9" transform="matrix(2.8938 0 0 -3.7937 722.5903 4238.7383)" style="overflow:visible;"/>
	
		<use xlink:href="#Rock_5"  width="19.7" height="10.6" x="-9.8" y="-5.3" transform="matrix(5.4401 0 0 -6.5393 302.4769 4418.4526)" style="overflow:visible;"/>
	
		<use xlink:href="#Ladybug"  width="50.1" height="56" x="-25.1" y="-28" transform="matrix(0.4691 -0.7092 -0.7505 -0.4965 299.2706 4388.6748)" style="overflow:visible;"/>
	<path class="st20" d="M390.5,1708c-30.3,0-55.9-20.3-63.9-48c-1.7,5.9-2.6,12.1-2.6,18.5c0,36.7,29.8,66.5,66.5,66.5
		s66.5-29.8,66.5-66.5c0-6.4-0.9-12.6-2.6-18.5C446.4,1687.7,420.8,1708,390.5,1708z"/>
</g>
<g id="Layer_2">
	
		<use xlink:href="#Grass_4"  width="44.8" height="23.8" x="-22.4" y="-11.9" transform="matrix(19.0098 0 0 -5.2877 429.5081 4404.9976)" style="overflow:visible;"/>
</g>
</svg>
