<?xml version="1.0" encoding="utf-8"?>
<!-- Generator: Adobe Illustrator 21.1.0, SVG Export Plug-In . SVG Version: 6.00 Build 0)  -->
<svg version="1.1" id="Layer_1" xmlns="http://www.w3.org/2000/svg" xmlns:xlink="http://www.w3.org/1999/xlink" x="0px" y="0px"
	 viewBox="0 0 750 250" style="enable-background:new 0 0 750 250;" xml:space="preserve">
<style type="text/css">
	.st0{fill:#D89723;}
	.st1{fill:#EDED6E;}
	.st2{fill:none;}
</style>
<g>
	<path class="st0" d="M155,209.5c-48.8,0-88.5-39.7-88.5-88.5s39.7-88.5,88.5-88.5s88.5,39.7,88.5,88.5S203.8,209.5,155,209.5z"/>
	<path class="st1" d="M155,33c48.5,0,88,39.5,88,88s-39.5,88-88,88s-88-39.5-88-88S106.5,33,155,33 M155,32c-49.2,0-89,39.8-89,89
		s39.8,89,89,89s89-39.9,89-89S204.2,32,155,32L155,32z"/>
</g>
<g>
	<ellipse class="st2" cx="152.5" cy="106" rx="86.5" ry="19"/>
	<g>
		<path class="st1" d="M149.5,138.5c-70,0-127-14.1-127-31.5s57-31.5,127-31.5s127,14.1,127,31.5S219.5,138.5,149.5,138.5z
			 M152.5,86.5c-48.8,0-87,8.6-87,19.5s38.2,19.5,87,19.5s87-8.6,87-19.5S201.3,86.5,152.5,86.5z"/>
		<path class="st0" d="M149.5,76c34,0,65.9,3.3,89.9,9.3C262.7,91.2,276,99.1,276,107c0,7.9-13.3,15.8-36.6,21.7
			c-24,6-55.9,9.3-89.9,9.3s-65.9-3.3-89.9-9.3C36.3,122.8,23,114.9,23,107c0-7.9,13.3-15.8,36.6-21.7C83.6,79.3,115.5,76,149.5,76
			 M152.5,126c43,0,87.5-7.5,87.5-20s-44.5-20-87.5-20S65,93.5,65,106S109.5,126,152.5,126 M149.5,75C79.1,75,22,89.3,22,107
			c0,17.7,57.1,32,127.5,32S277,124.7,277,107C277,89.3,219.9,75,149.5,75L149.5,75z M152.5,125c-47.8,0-86.5-8.5-86.5-19
			s38.7-19,86.5-19s86.5,8.5,86.5,19S200.3,125,152.5,125L152.5,125z"/>
	</g>
</g>
<g>
	<circle cx="121" cy="184" r="13"/>
</g>
<g>
	<circle cx="155" cy="184" r="13"/>
</g>
<g>
	<circle cx="188" cy="184" r="13"/>
</g>
</svg>
